<svg xmlns="http://www.w3.org/2000/svg" width="66" height="66" viewBox="0 0 66 66" fill="none">
  <path d="M33 0.0012207C14.7765 0.0012207 0 14.7748 0 32.9998C0 51.2247 14.7751 65.9983 33 65.9983C51.2264 65.9983 66 51.2247 66 32.9998C66 14.7748 51.2264 0.0012207 33 0.0012207ZM33 9.86817C39.03 9.86817 43.9164 14.756 43.9164 20.7831C43.9164 26.8117 39.03 31.6981 33 31.6981C26.9729 31.6981 22.0865 26.8117 22.0865 20.7831C22.0865 14.756 26.9729 9.86817 33 9.86817ZM32.9928 57.3707C26.9787 57.3707 21.4704 55.1805 17.2219 51.5552C16.1869 50.6724 15.5897 49.378 15.5897 48.0198C15.5897 41.9071 20.5369 37.015 26.6511 37.015H39.3518C45.4674 37.015 50.3958 41.9071 50.3958 48.0198C50.3958 49.3795 49.8015 50.671 48.7651 51.5538C44.518 55.1805 39.0083 57.3707 32.9928 57.3707Z" fill="#AEAEAE"/>
</svg>