<svg width="22" height="22" viewBox="0 0 22 22" fill="none" xmlns="http://www.w3.org/2000/svg">
<g id="Buildings" clip-path="url(#clip0_129_754)">
<path id="Vector" d="M20.1875 20.5625H18.875V11.375C18.875 11.0269 18.7367 10.6931 18.4906 10.4469C18.2444 10.2008 17.9106 10.0625 17.5625 10.0625H12.3125V6.125C12.3127 5.88732 12.2483 5.65407 12.1262 5.45013C12.0042 5.24619 11.829 5.07922 11.6195 4.96704C11.4099 4.85486 11.1739 4.80168 10.9365 4.81318C10.6991 4.82469 10.4693 4.90043 10.2716 5.03234L3.70906 9.40625C3.52904 9.52636 3.3815 9.68912 3.2796 9.88005C3.1777 10.071 3.12459 10.2841 3.125 10.5005V20.5625H1.8125C1.63845 20.5625 1.47153 20.6316 1.34846 20.7547C1.22539 20.8778 1.15625 21.0447 1.15625 21.2188C1.15625 21.3928 1.22539 21.5597 1.34846 21.6828C1.47153 21.8059 1.63845 21.875 1.8125 21.875H20.1875C20.3615 21.875 20.5285 21.8059 20.6515 21.6828C20.7746 21.5597 20.8438 21.3928 20.8438 21.2188C20.8438 21.0447 20.7746 20.8778 20.6515 20.7547C20.5285 20.6316 20.3615 20.5625 20.1875 20.5625ZM17.5625 11.375V20.5625H12.3125V11.375H17.5625ZM4.4375 10.5005L11 6.125V20.5625H4.4375V10.5005ZM9.6875 12.6875V14C9.6875 14.174 9.61836 14.341 9.49529 14.464C9.37222 14.5871 9.2053 14.6562 9.03125 14.6562C8.8572 14.6562 8.69028 14.5871 8.56721 14.464C8.44414 14.341 8.375 14.174 8.375 14V12.6875C8.375 12.5135 8.44414 12.3465 8.56721 12.2235C8.69028 12.1004 8.8572 12.0312 9.03125 12.0312C9.2053 12.0312 9.37222 12.1004 9.49529 12.2235C9.61836 12.3465 9.6875 12.5135 9.6875 12.6875ZM7.0625 12.6875V14C7.0625 14.174 6.99336 14.341 6.87029 14.464C6.74722 14.5871 6.5803 14.6562 6.40625 14.6562C6.2322 14.6562 6.06528 14.5871 5.94221 14.464C5.81914 14.341 5.75 14.174 5.75 14V12.6875C5.75 12.5135 5.81914 12.3465 5.94221 12.2235C6.06528 12.1004 6.2322 12.0312 6.40625 12.0312C6.5803 12.0312 6.74722 12.1004 6.87029 12.2235C6.99336 12.3465 7.0625 12.5135 7.0625 12.6875ZM7.0625 17.2812V18.5938C7.0625 18.7678 6.99336 18.9347 6.87029 19.0578C6.74722 19.1809 6.5803 19.25 6.40625 19.25C6.2322 19.25 6.06528 19.1809 5.94221 19.0578C5.81914 18.9347 5.75 18.7678 5.75 18.5938V17.2812C5.75 17.1072 5.81914 16.9403 5.94221 16.8172C6.06528 16.6941 6.2322 16.625 6.40625 16.625C6.5803 16.625 6.74722 16.6941 6.87029 16.8172C6.99336 16.9403 7.0625 17.1072 7.0625 17.2812ZM9.6875 17.2812V18.5938C9.6875 18.7678 9.61836 18.9347 9.49529 19.0578C9.37222 19.1809 9.2053 19.25 9.03125 19.25C8.8572 19.25 8.69028 19.1809 8.56721 19.0578C8.44414 18.9347 8.375 18.7678 8.375 18.5938V17.2812C8.375 17.1072 8.44414 16.9403 8.56721 16.8172C8.69028 16.6941 8.8572 16.625 9.03125 16.625C9.2053 16.625 9.37222 16.6941 9.49529 16.8172C9.61836 16.9403 9.6875 17.1072 9.6875 17.2812Z" fill="white"/>
</g>
<defs>
<clipPath id="clip0_129_754">
<rect width="21" height="21" fill="white" transform="translate(0.5 0.5)"/>
</clipPath>
</defs>
</svg>
