<svg xmlns="http://www.w3.org/2000/svg" width="77" height="18" viewBox="0 0 77 18" fill="none">
  <g clip-path="url(#clip0_129_774)">
    <mask id="mask0_129_774" style="mask-type:luminance" maskUnits="userSpaceOnUse" x="0" y="0" width="77" height="18">
      <path d="M76.8266 0H0V17.271H76.8266V0Z" fill="white"/>
    </mask>
    <g mask="url(#mask0_129_774)">
      <path d="M8.4093 16.9328C9.56703 16.9328 10.6033 16.7399 11.5181 16.3539C12.4472 15.9681 13.2333 15.4535 13.8765 14.8103C14.5197 14.1671 14.977 13.4524 15.2486 12.6663L12.3114 11.2513C12.0398 12.0231 11.561 12.6663 10.8749 13.1809C10.2031 13.6811 9.38123 13.9312 8.4093 13.9312C7.46594 13.9312 6.63695 13.7097 5.92227 13.2666C5.20761 12.8235 4.65017 12.2089 4.24996 11.4228C3.86405 10.6367 3.67109 9.72186 3.67109 8.67848C3.67109 7.63509 3.86405 6.72745 4.24996 5.9556C4.65017 5.16948 5.20761 4.55487 5.92227 4.11177C6.63695 3.66868 7.46594 3.44713 8.4093 3.44713C9.38123 3.44713 10.2031 3.70442 10.8749 4.21897C11.561 4.71924 12.0398 5.35528 12.3114 6.12713L15.2486 4.71209C14.977 3.92596 14.5197 3.21129 13.8765 2.5681C13.2333 1.92491 12.4472 1.41034 11.5181 1.02443C10.6033 0.63851 9.56703 0.445549 8.4093 0.445549C7.25156 0.445549 6.17957 0.652798 5.19332 1.06731C4.22138 1.46751 3.37092 2.03925 2.64197 2.7825C1.91301 3.51146 1.34843 4.38334 0.948214 5.39817C0.548006 6.3987 0.3479 7.49217 0.3479 8.67848C0.3479 9.86485 0.548006 10.9583 0.948214 11.9587C1.36272 12.9593 1.93445 13.8312 2.66341 14.5744C3.39237 15.3177 4.24281 15.8965 5.21476 16.311C6.201 16.7256 7.26588 16.9328 8.4093 16.9328Z" fill="white"/>
      <path d="M25.3781 16.9328C26.5787 16.9328 27.6935 16.7256 28.7227 16.311C29.7518 15.8965 30.6452 15.3177 31.4027 14.5744C32.1745 13.8169 32.7748 12.9379 33.2037 11.9374C33.6324 10.9368 33.8469 9.85052 33.8469 8.67847C33.8469 7.50641 33.6324 6.42014 33.2037 5.4196C32.7891 4.41907 32.196 3.54718 31.4241 2.80394C30.6666 2.06068 29.7733 1.4818 28.7441 1.0673C27.715 0.65279 26.593 0.445541 25.3781 0.445541C24.1631 0.445541 23.0411 0.65279 22.012 1.0673C20.9829 1.4818 20.0824 2.06068 19.3106 2.80394C18.5531 3.54718 17.9599 4.41907 17.5311 5.4196C17.1166 6.42014 16.9093 7.50641 16.9093 8.67847C16.9093 9.85052 17.1237 10.9368 17.5525 11.9374C17.9813 12.9379 18.5744 13.8169 19.332 14.5744C20.1039 15.3177 21.0043 15.8965 22.0335 16.311C23.0625 16.7256 24.1775 16.9328 25.3781 16.9328ZM25.3781 13.9312C24.4062 13.9312 23.5271 13.7097 22.7409 13.2666C21.9691 12.8092 21.3545 12.1874 20.8971 11.4013C20.454 10.6152 20.2325 9.70761 20.2325 8.67847C20.2325 7.64933 20.454 6.74173 20.8971 5.9556C21.3545 5.16947 21.9691 4.55486 22.7409 4.11176C23.5271 3.66867 24.4062 3.44712 25.3781 3.44712C26.35 3.44712 27.2219 3.66867 27.9938 4.11176C28.7799 4.55486 29.3945 5.16947 29.8376 5.9556C30.2949 6.74173 30.5236 7.64933 30.5236 8.67847C30.5236 9.70761 30.2949 10.6152 29.8376 11.4013C29.3945 12.1874 28.7799 12.8092 27.9938 13.2666C27.2219 13.7097 26.35 13.9312 25.3781 13.9312Z" fill="white"/>
      <path d="M36.2037 16.6755H41.4136C43.1431 16.6755 44.6439 16.3325 45.916 15.6464C47.1882 14.9603 48.1744 14.0169 48.8747 12.8163C49.575 11.6014 49.9253 10.2221 49.9253 8.6784C49.9253 7.13473 49.575 5.76257 48.8747 4.56194C48.1744 3.36131 47.1882 2.41795 45.916 1.73187C44.6439 1.04579 43.1431 0.702751 41.4136 0.702751H36.2037V16.6755ZM39.5269 13.7811V3.59714H41.4994C42.5428 3.59714 43.4432 3.8044 44.2008 4.2189C44.9583 4.6334 45.5444 5.21943 45.9589 5.97698C46.3877 6.73452 46.602 7.63501 46.602 8.6784C46.602 9.70753 46.3877 10.608 45.9589 11.3798C45.5444 12.1374 44.9583 12.7305 44.2008 13.1594C43.4432 13.5739 42.5428 13.7811 41.4994 13.7811H39.5269Z" fill="white"/>
      <path d="M52.0535 16.6755H62.7947V13.7811H55.3766V10.1148H62.3659V7.2205H55.3766V3.59714H62.7947V0.702751H52.0535V16.6755Z" fill="white"/>
      <path d="M65.8158 16.6755H76.6431V13.8883H70.0395L73.7056 10.1149C74.6634 9.14299 75.3636 8.25684 75.8069 7.4564C76.2639 6.64168 76.4927 5.79837 76.4927 4.92648C76.4927 4.026 76.2711 3.23988 75.8285 2.56809C75.3852 1.89631 74.7635 1.37461 73.9632 1.00298C73.1623 0.631356 72.2333 0.445541 71.1758 0.445541C70.3325 0.445541 69.5249 0.617063 68.7531 0.960102C67.9813 1.28885 67.3237 1.76052 66.7806 2.37512C66.2375 2.98974 65.8802 3.71156 65.7086 4.54057L68.603 5.48392C68.8174 4.79784 69.1533 4.29043 69.6107 3.96168C70.0681 3.61865 70.5898 3.44712 71.1758 3.44712C71.7476 3.44712 72.2189 3.61865 72.5909 3.96168C72.9766 4.29043 73.1695 4.74781 73.1695 5.33384C73.1695 5.66259 73.0838 5.99849 72.9126 6.34152C72.755 6.68456 72.4549 7.11336 72.0116 7.62789C71.5831 8.12817 70.9471 8.81426 70.1038 9.68616L65.8158 14.1028V16.6755Z" fill="#00955F"/>
    </g>
  </g>
  <defs>
    <clipPath id="clip0_129_774">
      <rect width="77" height="17.271" fill="white"/>
    </clipPath>
  </defs>
</svg>