<svg xmlns="http://www.w3.org/2000/svg" width="20" height="20" viewBox="0 0 20 20" fill="none">
  <g clip-path="url(#clip0_129_590)">
    <path d="M19.7293 9.86465C19.7293 14.7885 16.1218 18.8696 11.406 19.6095V12.7162H13.7045L14.1419 9.86465H11.406V8.01426C11.406 7.23395 11.7883 6.47368 13.0136 6.47368H14.2575V4.04605C14.2575 4.04605 13.1285 3.85338 12.0491 3.85338C9.79607 3.85338 8.3233 5.21902 8.3233 7.69135V9.86465H5.81861V12.7162H8.3233V19.6095C3.60754 18.8696 0 14.7885 0 9.86465C0 4.41674 4.41675 0 9.86466 0C15.3126 0 19.7293 4.41674 19.7293 9.86465Z" fill="#1877F2"/>
    <path d="M13.7045 12.7161L14.1419 9.86464H11.406V8.0142C11.406 7.23409 11.7882 6.47366 13.0136 6.47366H14.2575V4.04603C14.2575 4.04603 13.1286 3.85336 12.0493 3.85336C9.79602 3.85336 8.3233 5.219 8.3233 7.69133V9.86464H5.8186V12.7161H8.3233V19.6094C8.82555 19.6882 9.34028 19.7293 9.86465 19.7293C10.389 19.7293 10.9038 19.6882 11.406 19.6094V12.7161H13.7045Z" fill="white"/>
  </g>
  <defs>
    <clipPath id="clip0_129_590">
      <rect width="19.7293" height="19.7293" fill="white"/>
    </clipPath>
  </defs>
</svg>