<svg xmlns="http://www.w3.org/2000/svg" width="20" height="20" viewBox="0 0 20 20" fill="none">
  <g clip-path="url(#clip0_129_573)">
    <path d="M18.9844 8.14946L10.937 8.14908C10.5816 8.14908 10.2936 8.43708 10.2936 8.79244V11.3632C10.2936 11.7185 10.5816 12.0066 10.9369 12.0066H15.4687C14.9725 13.2944 14.0463 14.3729 12.8646 15.0582L14.797 18.4033C17.8967 16.6106 19.7293 13.4651 19.7293 9.94398C19.7293 9.44262 19.6924 9.08422 19.6185 8.68065C19.5623 8.37404 19.2961 8.14946 18.9844 8.14946Z" fill="#167EE6"/>
    <path d="M9.86466 15.8692C7.64688 15.8692 5.71079 14.6575 4.67095 12.8644L1.32599 14.7924C3.02822 17.7426 6.21705 19.7293 9.86466 19.7293C11.6541 19.7293 13.3425 19.2475 14.797 18.4079V18.4033L12.8646 15.0582C11.9807 15.5708 10.9579 15.8692 9.86466 15.8692Z" fill="#12B347"/>
    <path d="M14.797 18.4079V18.4033L12.8647 15.0582C11.9808 15.5708 10.958 15.8692 9.86469 15.8692V19.7293C11.6541 19.7293 13.3426 19.2475 14.797 18.4079Z" fill="#0F993E"/>
    <path d="M3.86009 9.86466C3.86009 8.7715 4.15841 7.74877 4.67095 6.86492L1.32599 4.93692C0.48175 6.38683 0 8.07068 0 9.86466C0 11.6586 0.48175 13.3425 1.32599 14.7924L4.67095 12.8644C4.15841 11.9806 3.86009 10.9578 3.86009 9.86466Z" fill="#FFD500"/>
    <path d="M9.86466 3.86009C11.3109 3.86009 12.6393 4.37397 13.6769 5.22877C13.9329 5.43962 14.3049 5.4244 14.5394 5.18993L16.3609 3.36843C16.6269 3.1024 16.608 2.66692 16.3238 2.42039C14.5853 0.912211 12.3234 0 9.86466 0C6.21705 0 3.02822 1.98669 1.32599 4.93691L4.67095 6.86491C5.71079 5.07182 7.64688 3.86009 9.86466 3.86009Z" fill="#FF4B26"/>
    <path d="M13.6769 5.22877C13.9329 5.43962 14.305 5.4244 14.5394 5.18993L16.3609 3.36843C16.6269 3.1024 16.6079 2.66692 16.3238 2.42039C14.5853 0.912172 12.3234 0 9.86469 0V3.86009C11.3109 3.86009 12.6393 4.37397 13.6769 5.22877Z" fill="#D93F21"/>
  </g>
  <defs>
    <clipPath id="clip0_129_573">
      <rect width="19.7293" height="19.7293" fill="white"/>
    </clipPath>
  </defs>
</svg>