<svg xmlns="http://www.w3.org/2000/svg" width="20" height="20" viewBox="0 0 20 20" fill="none">
  <g clip-path="url(#clip0_129_644)">
    <path d="M17.0389 0H2.69036C1.20452 0 0 1.20452 0 2.69036V17.0389C0 18.5248 1.20452 19.7293 2.69036 19.7293H17.0389C18.5248 19.7293 19.7293 18.5248 19.7293 17.0389V2.69036C19.7293 1.20452 18.5248 0 17.0389 0Z" fill="#0077B5"/>
    <path d="M7.10706 5.38066C7.10706 5.71323 7.00844 6.03832 6.82368 6.31484C6.63892 6.59136 6.37631 6.80688 6.06906 6.93414C5.76181 7.06141 5.42372 7.09471 5.09755 7.02983C4.77137 6.96495 4.47176 6.8048 4.2366 6.56965C4.00145 6.33449 3.8413 6.03488 3.77642 5.7087C3.71154 5.38253 3.74484 5.04444 3.87211 4.73719C3.99937 4.42994 4.21489 4.16733 4.49141 3.98257C4.76793 3.7978 5.09302 3.69919 5.42559 3.69919C5.87154 3.69919 6.29923 3.87634 6.61457 4.19168C6.92991 4.50702 7.10706 4.93471 7.10706 5.38066Z" fill="white"/>
    <path d="M6.72593 8.18313V15.6119C6.72622 15.6667 6.71568 15.721 6.69491 15.7717C6.67415 15.8224 6.64356 15.8686 6.60491 15.9074C6.56626 15.9463 6.52032 15.9771 6.46971 15.9981C6.41911 16.0192 6.36484 16.03 6.31004 16.03H4.53777C4.48296 16.0302 4.42867 16.0195 4.37801 15.9986C4.32735 15.9777 4.28132 15.947 4.24257 15.9082C4.20382 15.8695 4.17311 15.8234 4.1522 15.7728C4.1313 15.7221 4.12061 15.6678 4.12076 15.613V8.18313C4.12076 8.07254 4.16469 7.96647 4.2429 7.88827C4.3211 7.81006 4.42717 7.76613 4.53777 7.76613H6.31004C6.42044 7.76643 6.52622 7.81049 6.60418 7.88866C6.68215 7.96683 6.72593 8.07273 6.72593 8.18313Z" fill="white"/>
    <path d="M15.9897 12.0505V15.6466C15.9899 15.697 15.9801 15.747 15.9609 15.7935C15.9416 15.8401 15.9134 15.8824 15.8778 15.9181C15.8421 15.9537 15.7998 15.9819 15.7532 16.0011C15.7067 16.0204 15.6567 16.0302 15.6064 16.03H13.7007C13.6503 16.0302 13.6004 16.0204 13.5538 16.0011C13.5072 15.9819 13.4649 15.9537 13.4293 15.9181C13.3936 15.8824 13.3654 15.8401 13.3462 15.7935C13.327 15.747 13.3172 15.697 13.3173 15.6466V12.1615C13.3173 11.6414 13.4698 9.88367 11.9576 9.88367C10.7861 9.88367 10.5474 11.0865 10.5003 11.6268V15.6466C10.5003 15.7474 10.4607 15.844 10.39 15.9158C10.3193 15.9875 10.2232 16.0285 10.1225 16.03H8.28185C8.23156 16.03 8.18176 16.0201 8.13531 16.0008C8.08886 15.9815 8.04667 15.9533 8.01116 15.9177C7.97565 15.8821 7.94752 15.8398 7.92837 15.7933C7.90923 15.7468 7.89945 15.6969 7.8996 15.6466V8.15063C7.89945 8.10033 7.90923 8.05051 7.92837 8.004C7.94752 7.95749 7.97565 7.91522 8.01116 7.87961C8.04667 7.84399 8.08886 7.81574 8.13531 7.79646C8.18176 7.77718 8.23156 7.76725 8.28185 7.76725H10.1225C10.2242 7.76725 10.3217 7.80764 10.3936 7.87954C10.4655 7.95144 10.5059 8.04895 10.5059 8.15063V8.79856C10.9408 8.14614 11.5854 7.64282 12.9608 7.64282C16.0077 7.64282 15.9897 10.4879 15.9897 12.0505Z" fill="white"/>
  </g>
  <defs>
    <clipPath id="clip0_129_644">
      <rect width="19.7293" height="19.7293" fill="white"/>
    </clipPath>
  </defs>
</svg>