<svg width="25" height="26" viewBox="0 0 25 26" fill="none" xmlns="http://www.w3.org/2000/svg">
<g id="avatar_7313885" clip-path="url(#clip0_129_758)">
<g id="object">
<g id="01">
<path id="Vector" d="M20.8602 22.3532H19.7852C19.7223 22.3535 19.6617 22.33 19.6153 22.2874C19.569 22.2449 19.5404 22.1864 19.5352 22.1237L19.4662 21.2902C19.246 21.2041 19.0403 21.0847 18.8562 20.9362L18.1 21.2942C18.0434 21.3211 17.9787 21.3258 17.9189 21.3072C17.859 21.2887 17.8083 21.2484 17.7767 21.1942L17.2392 20.2642C17.2079 20.2098 17.1983 20.1456 17.2122 20.0844C17.2261 20.0231 17.2625 19.9694 17.3142 19.9337L18.0032 19.4562C17.9679 19.2228 17.9679 18.9854 18.0032 18.752L17.3142 18.2745C17.2625 18.2389 17.2261 18.1851 17.2122 18.1239C17.1983 18.0627 17.2079 17.9984 17.2392 17.944L17.7767 17.014C17.8083 16.96 17.8589 16.9197 17.9187 16.9012C17.9784 16.8827 18.0429 16.8873 18.0995 16.914L18.856 17.2702C19.0413 17.1233 19.2474 17.0047 19.4675 16.9182L19.5365 16.0845C19.5417 16.0219 19.5703 15.9635 19.6167 15.921C19.663 15.8785 19.7236 15.855 19.7865 15.8552H20.8615C20.9243 15.855 20.985 15.8785 21.0313 15.921C21.0776 15.9635 21.1063 16.0219 21.1115 16.0845L21.1805 16.92C21.3998 17.0056 21.6051 17.1236 21.7895 17.27L22.546 16.914C22.6025 16.8873 22.6671 16.8827 22.7268 16.9012C22.7866 16.9197 22.8372 16.96 22.8687 17.014L23.4062 17.944C23.4375 17.9984 23.4472 18.0627 23.4333 18.1239C23.4194 18.1851 23.383 18.2389 23.3312 18.2745L22.644 18.75C22.6793 18.9836 22.6793 19.2212 22.644 19.4547L23.3305 19.932C23.3822 19.9676 23.4186 20.0214 23.4325 20.0826C23.4464 20.1438 23.4368 20.2081 23.4055 20.2625L22.868 21.1925C22.8367 21.2467 22.7862 21.2871 22.7264 21.3059C22.6667 21.3246 22.6022 21.3203 22.5455 21.2937L21.7867 20.9375C21.6035 21.0845 21.3987 21.2025 21.1797 21.2875L21.1095 22.125C21.104 22.1873 21.0754 22.2454 21.0293 22.2876C20.9831 22.3299 20.9228 22.3533 20.8602 22.3532ZM20.0155 21.8532H20.6302L20.6937 21.085C20.6978 21.0353 20.7166 20.9879 20.7478 20.949C20.779 20.91 20.8211 20.8813 20.8687 20.8665C21.1319 20.786 21.3734 20.6469 21.575 20.4595C21.6114 20.4259 21.657 20.4039 21.706 20.3963C21.755 20.3887 21.8051 20.3958 21.85 20.4167L22.5472 20.7442L22.8547 20.2122L22.225 19.7735C22.184 19.7448 22.1526 19.7045 22.1348 19.6578C22.117 19.6111 22.1135 19.5602 22.125 19.5115C22.1863 19.2427 22.1863 18.9635 22.125 18.6947C22.1135 18.6461 22.117 18.5951 22.1348 18.5484C22.1526 18.5017 22.184 18.4614 22.225 18.4327L22.856 17.9942L22.55 17.4622L21.8552 17.7892C21.8103 17.8102 21.7602 17.8174 21.7113 17.8098C21.6623 17.8022 21.6167 17.7803 21.5802 17.7467C21.3774 17.56 21.1353 17.4209 20.8717 17.3397C20.8241 17.3249 20.782 17.2962 20.7508 17.2573C20.7196 17.2184 20.7008 17.171 20.6967 17.1212L20.6332 16.3532H20.0155L19.952 17.1187C19.9479 17.1684 19.929 17.2157 19.8978 17.2545C19.8666 17.2933 19.8246 17.322 19.777 17.3367C19.5123 17.4193 19.2691 17.5593 19.0647 17.7467C19.0283 17.7803 18.9827 17.8022 18.9337 17.8098C18.8847 17.8174 18.8346 17.8102 18.7897 17.7892L18.095 17.4622L17.7877 17.994L18.421 18.4327C18.4619 18.4614 18.4934 18.5017 18.5112 18.5484C18.529 18.5951 18.5324 18.6461 18.521 18.6947C18.4597 18.9635 18.4597 19.2427 18.521 19.5115C18.5324 19.5602 18.529 19.6111 18.5112 19.6578C18.4934 19.7045 18.4619 19.7448 18.421 19.7735L17.787 20.2125L18.0942 20.7437L18.791 20.4145C18.8363 20.3931 18.8869 20.3858 18.9364 20.3936C18.9859 20.4013 19.0319 20.4238 19.0685 20.458C19.2704 20.6472 19.5128 20.7879 19.7772 20.8695C19.8248 20.8843 19.8669 20.9129 19.8981 20.9518C19.9292 20.9906 19.9481 21.0379 19.9522 21.0875L20.0155 21.8532ZM20.322 20.1405C20.1167 20.1405 19.9159 20.0797 19.7452 19.9657C19.5745 19.8516 19.4414 19.6895 19.3628 19.4998C19.2842 19.3102 19.2636 19.1014 19.3037 18.9001C19.3437 18.6987 19.4426 18.5137 19.5878 18.3685C19.7329 18.2233 19.9179 18.1245 20.1193 18.0844C20.3207 18.0444 20.5294 18.065 20.7191 18.1436C20.9088 18.2222 21.0709 18.3552 21.1849 18.526C21.2989 18.6967 21.3598 18.8974 21.3597 19.1027C21.3593 19.3779 21.2499 19.6416 21.0553 19.8361C20.8608 20.0306 20.5971 20.1401 20.322 20.1405ZM20.322 18.5655C20.2156 18.5654 20.1115 18.597 20.023 18.656C19.9345 18.7151 19.8655 18.7991 19.8248 18.8974C19.784 18.9957 19.7733 19.1039 19.794 19.2083C19.8148 19.3127 19.866 19.4086 19.9412 19.4838C20.0165 19.5591 20.1123 19.6104 20.2167 19.6311C20.3211 19.6519 20.4292 19.6413 20.5276 19.6006C20.6259 19.5599 20.7099 19.4909 20.7691 19.4024C20.8282 19.3139 20.8597 19.2099 20.8597 19.1035C20.8598 18.9608 20.8032 18.8238 20.7024 18.7228C20.6015 18.6218 20.4647 18.5649 20.322 18.5647V18.5655ZM3.06224 19.5557C3.0623 19.1554 3.10165 18.7559 3.17974 18.3632C3.18689 18.3308 3.18749 18.2972 3.18151 18.2645C3.17553 18.2318 3.16308 18.2006 3.1449 18.1728C3.12671 18.1449 3.10316 18.121 3.07561 18.1024C3.04807 18.0837 3.01708 18.0708 2.98448 18.0643C2.95187 18.0578 2.91829 18.0579 2.88571 18.0645C2.85312 18.0711 2.82219 18.0842 2.79472 18.1029C2.76725 18.1217 2.7438 18.1457 2.72573 18.1736C2.70766 18.2015 2.69534 18.2328 2.68949 18.2655C2.6049 18.6904 2.56228 19.1225 2.56224 19.5557C2.56224 19.6221 2.58858 19.6856 2.63546 19.7325C2.68235 19.7794 2.74593 19.8057 2.81224 19.8057C2.87854 19.8057 2.94213 19.7794 2.98901 19.7325C3.0359 19.6856 3.06224 19.6221 3.06224 19.5557ZM3.54999 17.1655C4.07084 15.9699 4.90743 14.9387 5.96999 14.1825C5.99653 14.1631 6.019 14.1387 6.03611 14.1107C6.05322 14.0826 6.06464 14.0515 6.06971 14.019C6.07478 13.9865 6.07341 13.9534 6.06567 13.9215C6.05793 13.8895 6.04398 13.8594 6.02461 13.8329C6.00524 13.8063 5.98083 13.7839 5.95278 13.7668C5.92473 13.7496 5.89358 13.7382 5.86111 13.7332C5.82865 13.7281 5.7955 13.7295 5.76357 13.7372C5.73163 13.7449 5.70153 13.7589 5.67499 13.7782C4.53877 14.5879 3.64452 15.6917 3.08824 16.9712C3.07436 17.0017 3.06673 17.0346 3.06579 17.068C3.06485 17.1014 3.07063 17.1347 3.08278 17.1658C3.09493 17.197 3.1132 17.2254 3.13652 17.2493C3.15984 17.2733 3.18772 17.2923 3.21853 17.3053C3.24934 17.3183 3.28244 17.325 3.31587 17.325C3.34931 17.325 3.3824 17.3182 3.41319 17.3052C3.44398 17.2922 3.47184 17.2731 3.49512 17.2491C3.5184 17.2251 3.53663 17.1967 3.54874 17.1655H3.54999ZM18.6657 22.0727C18.696 22.06 18.7235 22.0414 18.7466 22.0181C18.7697 21.9947 18.7879 21.9671 18.8003 21.9366C18.8127 21.9062 18.819 21.8737 18.8188 21.8408C18.8186 21.808 18.812 21.7755 18.7992 21.7452C18.7865 21.715 18.7679 21.6875 18.7446 21.6644C18.7212 21.6413 18.6935 21.6231 18.6631 21.6107C18.6327 21.5983 18.6002 21.592 18.5673 21.5922C18.5345 21.5924 18.502 21.599 18.4717 21.6117C14.3795 23.3342 6.04824 23.0575 3.10149 21.1C2.41174 20.642 2.06224 20.122 2.06224 19.5547C2.06224 15.118 6.19474 11.5087 11.2742 11.5087C14.4525 11.5087 17.3652 12.9117 19.0665 15.262C19.1054 15.3157 19.164 15.3518 19.2295 15.3622C19.295 15.3727 19.3619 15.3568 19.4156 15.3179C19.4693 15.279 19.5054 15.2204 19.5159 15.1549C19.5263 15.0894 19.5104 15.0225 19.4715 14.9687C17.6767 12.49 14.6122 11.0097 11.275 11.0097C5.91974 11.0097 1.56299 14.8435 1.56299 19.5557C1.56299 20.301 1.98799 20.961 2.82574 21.5175C4.52149 22.6425 7.92899 23.236 11.344 23.236C14.0687 23.236 16.8 22.8582 18.6657 22.0727ZM11.275 9.613C10.3993 9.613 9.5433 9.35333 8.8152 8.86683C8.0871 8.38033 7.51962 7.68885 7.18451 6.87983C6.8494 6.07081 6.76173 5.18059 6.93256 4.32174C7.1034 3.46288 7.52508 2.67398 8.14427 2.05478C8.76347 1.43559 9.55237 1.01391 10.4112 0.843071C11.2701 0.672235 12.1603 0.759914 12.9693 1.09502C13.7783 1.43013 14.4698 1.99761 14.9563 2.72571C15.4428 3.45381 15.7025 4.30982 15.7025 5.1855C15.7012 6.35934 15.2343 7.48472 14.4042 8.31475C13.5742 9.14478 12.4488 9.61167 11.275 9.613ZM11.275 1.258C10.4982 1.258 9.73886 1.48834 9.09299 1.9199C8.44711 2.35146 7.94371 2.96485 7.64645 3.68251C7.34919 4.40017 7.27141 5.18985 7.42295 5.95171C7.5745 6.71358 7.94855 7.41339 8.49783 7.96266C9.0471 8.51193 9.74691 8.88599 10.5088 9.03753C11.2706 9.18907 12.0603 9.1113 12.778 8.81404C13.4956 8.51677 14.109 8.01337 14.5406 7.3675C14.9721 6.72163 15.2025 5.96228 15.2025 5.1855C15.2013 4.14423 14.7871 3.14594 14.0508 2.40965C13.3145 1.67336 12.3163 1.25919 11.275 1.258ZM15.8952 16.3532H13.0155C12.8148 16.3496 12.6236 16.2674 12.483 16.1242C12.3424 15.981 12.2636 15.7883 12.2636 15.5876C12.2636 15.3869 12.3424 15.1943 12.483 15.0511C12.6236 14.9079 12.8148 14.8256 13.0155 14.822H15.8952C15.9969 14.8202 16.098 14.8386 16.1925 14.8763C16.287 14.9139 16.373 14.97 16.4456 15.0413C16.5182 15.1126 16.5759 15.1976 16.6152 15.2914C16.6546 15.3852 16.6748 15.4859 16.6748 15.5876C16.6748 15.6893 16.6546 15.7901 16.6152 15.8839C16.5759 15.9777 16.5182 16.0627 16.4456 16.134C16.373 16.2052 16.287 16.2613 16.1925 16.299C16.098 16.3366 15.9969 16.3551 15.8952 16.3532ZM13.0155 15.322C12.9464 15.3241 12.8809 15.353 12.8329 15.4026C12.7848 15.4522 12.7579 15.5186 12.7579 15.5876C12.7579 15.6567 12.7848 15.723 12.8329 15.7726C12.8809 15.8222 12.9464 15.8511 13.0155 15.8532H15.8952C15.9308 15.8543 15.9662 15.8483 15.9994 15.8354C16.0326 15.8226 16.0629 15.8032 16.0884 15.7784C16.1139 15.7536 16.1343 15.724 16.1481 15.6912C16.162 15.6584 16.1691 15.6232 16.1691 15.5876C16.1691 15.552 16.162 15.5168 16.1481 15.484C16.1343 15.4513 16.1139 15.4216 16.0884 15.3968C16.0629 15.3721 16.0326 15.3527 15.9994 15.3398C15.9662 15.327 15.9308 15.3209 15.8952 15.322H13.0155Z" fill="white"/>
</g>
</g>
</g>
<defs>
<clipPath id="clip0_129_758">
<rect width="25" height="25" fill="white" transform="translate(0 0.5)"/>
</clipPath>
</defs>
</svg>
