<svg xmlns="http://www.w3.org/2000/svg" width="140" height="142" viewBox="0 0 140 142" fill="none">
  <g clip-path="url(#clip0_129_770)">
    <path fill-rule="evenodd" clip-rule="evenodd" d="M137.55 94.2067C127.832 121.649 101.611 141.311 70.7893 141.311C31.6934 141.311 0 109.677 0 70.6553C0 31.6334 31.6934 0 70.7893 0C101.611 0 127.832 19.6612 137.55 47.1035H115.901C107.394 30.9033 90.3839 19.8507 70.7879 19.8507C42.6764 19.8507 19.8873 42.5965 19.8873 70.6553C19.8873 98.7134 42.6764 121.46 70.7879 121.46C90.3839 121.46 107.394 110.407 115.901 94.2067H137.55Z" fill="#00955F"/>
    <path d="M123.753 67.128L116.77 67.0809C116.582 66.5785 116.487 65.73 116.487 64.5364C116.487 61.6461 117.509 59.1955 119.554 57.1852C121.629 55.1745 124.429 54.169 127.952 54.169C131.38 54.169 134.132 55.1431 136.208 57.0906C138.284 59.0071 139.322 61.3789 139.322 64.2063C139.322 68.1649 137.309 71.3377 133.283 73.7256L127.479 77.1653C126.442 77.8251 125.75 78.5162 125.404 79.2388H139.558V85.4592H116.298C116.298 82.4434 116.833 79.8358 117.903 77.6367C119.004 75.4062 120.874 73.5211 123.516 71.9818L128.518 69.0602C129.744 68.3376 130.61 67.6307 131.112 66.9396C131.616 66.217 131.867 65.3531 131.867 64.3476C131.867 63.3111 131.506 62.4472 130.782 61.756C130.09 61.0649 129.084 60.7191 127.763 60.7191C126.379 60.7191 125.31 61.1434 124.555 61.9915C123.831 62.8397 123.47 63.9237 123.47 65.2432C123.47 65.903 123.564 66.5314 123.753 67.128Z" fill="#00955F"/>
    <path fill-rule="evenodd" clip-rule="evenodd" d="M70.79 105.31C89.9653 105.31 105.51 89.7942 105.51 70.6549C105.51 51.5156 89.9653 36.0003 70.79 36.0003C51.6144 36.0003 36.0695 51.5156 36.0695 70.6549C36.0695 89.7942 51.6144 105.31 70.79 105.31ZM70.7932 86.8053C79.7294 86.8053 86.9731 79.5744 86.9731 70.6553C86.9731 61.7358 79.7294 54.5053 70.7932 54.5053C61.8569 54.5053 54.6128 61.7358 54.6128 70.6553C54.6128 79.5744 61.8569 86.8053 70.7932 86.8053Z" fill="#00955F"/>
  </g>
  <defs>
    <clipPath id="clip0_129_770">
      <rect width="139.558" height="142" fill="white"/>
    </clipPath>
  </defs>
</svg>